<?xml version="1.0" encoding="UTF-8" standalone="no"?>
<!-- Created with Inkscape (http://www.inkscape.org/) -->

<svg
   width="1200"
   height="630"
   viewBox="0 0 317.50001 166.68751"
   version="1.1"
   id="svg5"
   inkscape:version="1.1.2 (0a00cf5339, 2022-02-04, custom)"
   sodipodi:docname="link-preview.svg"
   inkscape:export-filename="C:\laragon\www\wishthis\src\assets\img\logo-square-white-background.png"
   inkscape:export-xdpi="96"
   inkscape:export-ydpi="96"
   xmlns:inkscape="http://www.inkscape.org/namespaces/inkscape"
   xmlns:sodipodi="http://sodipodi.sourceforge.net/DTD/sodipodi-0.dtd"
   xmlns="http://www.w3.org/2000/svg"
   xmlns:svg="http://www.w3.org/2000/svg">
  <sodipodi:namedview
     id="namedview7"
     pagecolor="#ffffff"
     bordercolor="#666666"
     borderopacity="1.0"
     inkscape:pageshadow="2"
     inkscape:pageopacity="0.0"
     inkscape:pagecheckerboard="0"
     inkscape:document-units="mm"
     showgrid="false"
     inkscape:zoom="0.27496367"
     inkscape:cx="141.83692"
     inkscape:cy="1087.4164"
     inkscape:window-width="1920"
     inkscape:window-height="1027"
     inkscape:window-x="-8"
     inkscape:window-y="-8"
     inkscape:window-maximized="1"
     inkscape:current-layer="layer1"
     fit-margin-top="0"
     fit-margin-left="0"
     fit-margin-right="0"
     fit-margin-bottom="0"
     borderlayer="true"
     inkscape:showpageshadow="false"
     units="px"
     inkscape:snap-page="true" />
  <defs
     id="defs2">
    <rect
       x="-887.38995"
       y="1174.7006"
       width="2683.991"
       height="891.02679"
       id="rect1289" />
    <rect
       x="-596.61987"
       y="-191.58698"
       width="1722.9969"
       height="1116.0906"
       id="rect1574" />
  </defs>
  <g
     inkscape:label="Layer 1"
     inkscape:groupmode="layer"
     id="layer1"
     transform="translate(157.69673,48.619999)">
    <rect
       style="fill:#ffffff;fill-opacity:1;stroke:none;stroke-width:0.264583;stroke-linecap:square;stroke-dashoffset:7.55905;paint-order:stroke markers fill"
       id="rect867"
       width="317.5"
       height="166.6875"
       x="-157.69673"
       y="-48.619999" />
    <g
       id="g5155"
       transform="translate(24.816839,-77.20008)">
      <g
         aria-label="wishthis"
         transform="matrix(1.2244563,0,0,1.2244563,614.78006,293.73157)"
         id="text1572"
         style="font-size:40px;line-height:1.25;font-family:Raleway;-inkscape-font-specification:Raleway;white-space:pre;shape-inside:url(#rect1574);stroke-width:0.338749">
        <path
           d="m -567.37914,-175.40063 h 2.68 l -8.96,20.84 h -2.36 l -4.36,-10.36 -4.32,10.36 h -2.36 l -8.96,-20.84 h 2.64 l 7.6,18.04 3.84,-9.4 -3.52,-8.6 h 2.44 l 2.64,6.76 2.68,-6.76 h 2.4 l -3.48,8.6 3.84,9.4 z"
           id="path1932"
           style="stroke-width:0.338749" />
        <path
           d="m -561.09915,-154.56063 v -20.84 h 2.72 v 20.84 z m 0,-25.2 v -4 h 2.72 v 4 z"
           id="path1934"
           style="stroke-width:0.338749" />
        <path
           d="m -545.53914,-154.16063 q -2.56,0 -4.76,-0.84 -2.2,-0.84 -3.8,-2.56 l 1.12,-1.92 q 1.76,1.64 3.52,2.4 1.8,0.72 3.8,0.72 2.44,0 3.96,-0.96 1.52,-1 1.52,-2.84 0,-1.24 -0.76,-1.88 -0.72,-0.68 -2.12,-1.08 -1.36,-0.44 -3.28,-0.92 -2.16,-0.6 -3.64,-1.24 -1.44,-0.68 -2.2,-1.68 -0.72,-1.04 -0.72,-2.68 0,-2.04 1,-3.36 1.04,-1.36 2.8,-2.04 1.8,-0.72 4,-0.72 2.4,0 4.24,0.76 1.84,0.76 3,2.12 l -1.32,1.84 q -1.12,-1.28 -2.68,-1.88 -1.52,-0.64 -3.4,-0.64 -1.28,0 -2.44,0.36 -1.16,0.32 -1.92,1.12 -0.72,0.76 -0.72,2.12 0,1.12 0.56,1.76 0.56,0.6 1.68,1.04 1.12,0.4 2.76,0.88 2.36,0.64 4.12,1.32 1.76,0.64 2.72,1.68 0.96,1.04 0.96,2.92 0,2.92 -2.2,4.56 -2.2,1.64 -5.8,1.64 z"
           id="path1936"
           style="stroke-width:0.338749" />
        <path
           d="m -515.53914,-154.56063 h -2.72 v -11.64 q 0,-3.52 -1.24,-5.28 -1.24,-1.8 -3.56,-1.8 -1.52,0 -3.04,0.8 -1.48,0.76 -2.64,2.12 -1.12,1.32 -1.6,3.04 v 12.76 h -2.72 v -29.2 h 2.72 v 13.08 q 1.24,-2.32 3.44,-3.68 2.24,-1.4 4.76,-1.4 1.8,0 3.04,0.64 1.28,0.64 2.04,1.88 0.8,1.2 1.16,2.84 0.36,1.6 0.36,3.64 z"
           id="path1938"
           style="stroke-width:0.338749" />
        <path
           d="m -497.73914,-155.64063 q -0.68,0.28 -1.64,0.64 -0.96,0.36 -2.08,0.56 -1.08,0.24 -2.2,0.24 -1.48,0 -2.72,-0.52 -1.24,-0.52 -2,-1.64 -0.72,-1.16 -0.72,-3 v -12.04 h -2.76 v -4.12 h 2.76 v -6.8 h 5.36 v 6.8 h 4.4 v 4.12 h -4.4 v 10.24 q 0.04,1.08 0.6,1.56 0.56,0.48 1.4,0.48 0.84,0 1.64,-0.28 0.8,-0.28 1.28,-0.48 z"
           style="font-weight:bold;-inkscape-font-specification:'Raleway Bold';fill:#6435c9;stroke-width:0.338749"
           id="path1940" />
        <path
           d="m -475.4591,-154.56063 h -5.36 v -11.76 q 0,-2.44 -0.96,-3.64 -0.92,-1.2 -2.56,-1.2 -0.96,0 -2.04,0.56 -1.08,0.56 -1.96,1.56 -0.84,0.96 -1.24,2.24 v 12.24 h -5.36 v -29.2 h 5.36 v 12.12 q 1.16,-2 3.16,-3.12 2,-1.12 4.36,-1.12 2.04,0 3.32,0.72 1.28,0.68 2,1.88 0.72,1.16 1,2.64 0.28,1.44 0.28,3 z"
           style="font-weight:bold;-inkscape-font-specification:'Raleway Bold';fill:#6435c9;stroke-width:0.338749"
           id="path1942" />
        <path
           d="m -470.7791,-154.56063 v -20.96 h 5.36 v 20.96 z m 0,-23.88 v -5.32 h 5.36 v 5.32 z"
           style="font-weight:bold;-inkscape-font-specification:'Raleway Bold';fill:#6435c9;stroke-width:0.338749"
           id="path1944" />
        <path
           d="m -452.85913,-154.16063 q -2.68,0 -5.12,-0.88 -2.44,-0.88 -4.2,-2.6 l 1.92,-3.48 q 1.88,1.52 3.68,2.24 1.84,0.72 3.52,0.72 1.56,0 2.48,-0.56 0.96,-0.56 0.96,-1.68 0,-0.76 -0.52,-1.16 -0.52,-0.44 -1.52,-0.76 -0.96,-0.32 -2.36,-0.72 -2.32,-0.76 -3.88,-1.48 -1.56,-0.72 -2.36,-1.8 -0.76,-1.12 -0.76,-2.84 0,-2.08 1.04,-3.56 1.08,-1.52 2.96,-2.36 1.92,-0.84 4.48,-0.84 2.24,0 4.24,0.72 2,0.68 3.64,2.24 l -2.16,3.4 q -1.6,-1.24 -3.04,-1.8 -1.44,-0.6 -2.92,-0.6 -0.84,0 -1.6,0.2 -0.72,0.2 -1.2,0.68 -0.44,0.44 -0.44,1.28 0,0.76 0.4,1.2 0.44,0.4 1.28,0.72 0.88,0.32 2.12,0.72 2.52,0.72 4.24,1.48 1.76,0.76 2.64,1.88 0.88,1.08 0.88,3 0,3.12 -2.28,4.88 -2.28,1.76 -6.12,1.76 z"
           style="font-weight:bold;-inkscape-font-specification:'Raleway Bold';fill:#6435c9;stroke-width:0.338749"
           id="path1946" />
      </g>
      <g
         aria-label="MAKE A WISH"
         transform="matrix(0.79019814,0,0,0.79019814,553.22615,-802.37728)"
         id="text1287"
         style="font-weight:bold;font-size:40px;line-height:1.25;-inkscape-font-specification:'sans-serif, Bold';letter-spacing:0px;word-spacing:0px;white-space:pre;shape-inside:url(#rect1289);stroke-width:0.334832">
        <path
           d="m -853.19141,1211.1944 h -7.46093 v -19.4727 l -5.39063,12.6367 h -5.17578 l -5.39062,-12.6367 v 19.4727 h -7.07032 v -29.082 h 8.71094 l 6.54297,14.5898 6.52344,-14.5898 h 8.71093 z"
           id="path5099" />
        <path
           d="m -818.89453,1211.1944 h -7.75391 l -2.01172,-5.8789 h -10.78125 l -2.01171,5.8789 h -7.5586 l 10.74219,-29.082 h 8.63281 z m -11.58203,-11.211 -3.57422,-10.4296 -3.57422,10.4296 z"
           id="path5101" />
        <path
           d="m -787.56641,1211.1944 h -9.19921 l -8.69141,-11.6406 -1.75781,2.1289 v 9.5117 h -7.5 v -29.082 h 7.5 v 13.164 l 10.39062,-13.164 h 8.69141 l -11.36719,13.457 z"
           id="path5103" />
        <path
           d="M -762.83984,1211.1944 H -783.875 v -29.082 h 21.03516 v 5.625 h -13.57422 v 5.0195 h 12.59765 v 5.625 h -12.59765 v 7.1875 h 13.57422 z"
           id="path5105" />
        <path
           d="m -716.00391,1211.1944 h -7.7539 l -2.01172,-5.8789 h -10.78125 l -2.01172,5.8789 h -7.55859 l 10.74218,-29.082 h 8.63282 z m -11.58203,-11.211 -3.57422,-10.4296 -3.57421,10.4296 z"
           id="path5107" />
        <path
           d="m -658.01562,1182.1124 -7.83204,29.082 h -8.30078 l -5.21484,-18.9453 -5.07813,18.9453 h -8.30078 l -7.83203,-29.082 h 7.83203 l 4.47266,20.0195 5.35156,-20.0195 h 7.48047 l 5.09766,20.0195 4.6875,-20.0195 z"
           id="path5109" />
        <path
           d="m -637.29297,1211.1944 h -17.03125 v -5.1563 h 4.76563 v -18.7695 h -4.76563 v -5.1562 h 17.03125 v 5.1562 h -4.76562 v 18.7695 h 4.76562 z"
           id="path5111" />
        <path
           d="m -607.89844,1202.0538 q 0,4.2968 -3.65234,6.9921 -3.63281,2.6758 -9.88281,2.6758 -3.61328,0 -6.3086,-0.625 -2.67578,-0.6445 -5.01953,-1.6211 v -6.9726 h 0.82031 q 2.32422,1.8554 5.19532,2.8515 2.89062,0.9961 5.54687,0.9961 0.6836,0 1.79688,-0.1172 1.11328,-0.1171 1.8164,-0.3906 0.85938,-0.3515 1.40625,-0.8789 0.56641,-0.5273 0.56641,-1.5625 0,-0.957 -0.82031,-1.6406 -0.80078,-0.7031 -2.36328,-1.0742 -1.64063,-0.3907 -3.47657,-0.7227 -1.8164,-0.3515 -3.41797,-0.8789 -3.67187,-1.1914 -5.29296,-3.2226 -1.60157,-2.0508 -1.60157,-5.0782 0,-4.0625 3.63282,-6.6211 3.65234,-2.5781 9.375,-2.5781 2.87109,0 5.66406,0.5664 2.8125,0.5469 4.86328,1.3867 v 6.6993 h -0.80078 q -1.75781,-1.4063 -4.31641,-2.3438 -2.53906,-0.957 -5.19531,-0.957 -0.9375,0 -1.875,0.1367 -0.91797,0.1172 -1.77734,0.4687 -0.76172,0.293 -1.3086,0.8985 -0.54687,0.5859 -0.54687,1.3476 0,1.1524 0.8789,1.7774 0.87891,0.6054 3.32032,1.1133 1.60156,0.332 3.0664,0.6445 1.48438,0.3125 3.1836,0.8594 3.33984,1.0937 4.92187,2.9882 1.60156,1.875 1.60156,4.8829 z"
           id="path5113" />
        <path
           d="m -576.6875,1211.1944 h -7.5 v -12.8125 h -11.07422 v 12.8125 h -7.5 v -29.082 h 7.5 v 10.6445 h 11.07422 v -10.6445 h 7.5 z"
           id="path5115" />
      </g>
    </g>
  </g>
</svg>
