<?xml version="1.0" encoding="UTF-8" standalone="no"?>
<!-- Created with Inkscape (http://www.inkscape.org/) -->

<svg
   width="173.43971"
   height="173.43971"
   viewBox="0 0 45.889258 45.889259"
   version="1.1"
   id="svg5"
   inkscape:version="1.1.2 (0a00cf5339, 2022-02-04, custom)"
   sodipodi:docname="logo-square.svg"
   inkscape:export-filename="F:\laragon\www\wishthis\src\assets\img\logo-square.png"
   inkscape:export-xdpi="96"
   inkscape:export-ydpi="96"
   xmlns:inkscape="http://www.inkscape.org/namespaces/inkscape"
   xmlns:sodipodi="http://sodipodi.sourceforge.net/DTD/sodipodi-0.dtd"
   xmlns="http://www.w3.org/2000/svg"
   xmlns:svg="http://www.w3.org/2000/svg">
  <sodipodi:namedview
     id="namedview7"
     pagecolor="#ffffff"
     bordercolor="#666666"
     borderopacity="1.0"
     inkscape:pageshadow="2"
     inkscape:pageopacity="0.0"
     inkscape:pagecheckerboard="0"
     inkscape:document-units="mm"
     showgrid="false"
     inkscape:zoom="4.3994184"
     inkscape:cx="93.194136"
     inkscape:cy="76.146428"
     inkscape:window-width="1920"
     inkscape:window-height="1027"
     inkscape:window-x="-8"
     inkscape:window-y="-8"
     inkscape:window-maximized="1"
     inkscape:current-layer="layer1"
     fit-margin-top="0"
     fit-margin-left="0"
     fit-margin-right="0"
     fit-margin-bottom="0"
     borderlayer="true"
     inkscape:showpageshadow="false"
     units="px"
     inkscape:snap-page="true" />
  <defs
     id="defs2">
    <rect
       x="-596.61987"
       y="-191.58698"
       width="1722.9969"
       height="1116.0906"
       id="rect1574" />
  </defs>
  <g
     inkscape:label="Layer 1"
     inkscape:groupmode="layer"
     id="layer1"
     transform="translate(157.69673,48.62)">
    <rect
       style="fill:#ffffff;fill-opacity:1;stroke:none;stroke-width:0.266341"
       id="rect8818"
       width="45.889256"
       height="45.889256"
       x="-157.69673"
       y="-48.619999" />
    <g
       aria-label="wishthis"
       transform="matrix(0.26458333,0,0,0.26458333,2.8945021,19.028796)"
       id="text1572"
       style="font-size:40px;line-height:1.25;font-family:Raleway;-inkscape-font-specification:Raleway;white-space:pre;shape-inside:url(#rect1574)">
      <path
         d="m -567.37914,-175.40063 h 2.68 l -8.96,20.84 h -2.36 l -4.36,-10.36 -4.32,10.36 h -2.36 l -8.96,-20.84 h 2.64 l 7.6,18.04 3.84,-9.4 -3.52,-8.6 h 2.44 l 2.64,6.76 2.68,-6.76 h 2.4 l -3.48,8.6 3.84,9.4 z"
         id="path1932" />
      <path
         d="m -561.09915,-154.56063 v -20.84 h 2.72 v 20.84 z m 0,-25.2 v -4 h 2.72 v 4 z"
         id="path1934" />
      <path
         d="m -545.53914,-154.16063 q -2.56,0 -4.76,-0.84 -2.2,-0.84 -3.8,-2.56 l 1.12,-1.92 q 1.76,1.64 3.52,2.4 1.8,0.72 3.8,0.72 2.44,0 3.96,-0.96 1.52,-1 1.52,-2.84 0,-1.24 -0.76,-1.88 -0.72,-0.68 -2.12,-1.08 -1.36,-0.44 -3.28,-0.92 -2.16,-0.6 -3.64,-1.24 -1.44,-0.68 -2.2,-1.68 -0.72,-1.04 -0.72,-2.68 0,-2.04 1,-3.36 1.04,-1.36 2.8,-2.04 1.8,-0.72 4,-0.72 2.4,0 4.24,0.76 1.84,0.76 3,2.12 l -1.32,1.84 q -1.12,-1.28 -2.68,-1.88 -1.52,-0.64 -3.4,-0.64 -1.28,0 -2.44,0.36 -1.16,0.32 -1.92,1.12 -0.72,0.76 -0.72,2.12 0,1.12 0.56,1.76 0.56,0.6 1.68,1.04 1.12,0.4 2.76,0.88 2.36,0.64 4.12,1.32 1.76,0.64 2.72,1.68 0.96,1.04 0.96,2.92 0,2.92 -2.2,4.56 -2.2,1.64 -5.8,1.64 z"
         id="path1936" />
      <path
         d="m -515.53914,-154.56063 h -2.72 v -11.64 q 0,-3.52 -1.24,-5.28 -1.24,-1.8 -3.56,-1.8 -1.52,0 -3.04,0.8 -1.48,0.76 -2.64,2.12 -1.12,1.32 -1.6,3.04 v 12.76 h -2.72 v -29.2 h 2.72 v 13.08 q 1.24,-2.32 3.44,-3.68 2.24,-1.4 4.76,-1.4 1.8,0 3.04,0.64 1.28,0.64 2.04,1.88 0.8,1.2 1.16,2.84 0.36,1.6 0.36,3.64 z"
         id="path1938" />
      <path
         d="m -497.73914,-155.64063 q -0.68,0.28 -1.64,0.64 -0.96,0.36 -2.08,0.56 -1.08,0.24 -2.2,0.24 -1.48,0 -2.72,-0.52 -1.24,-0.52 -2,-1.64 -0.72,-1.16 -0.72,-3 v -12.04 h -2.76 v -4.12 h 2.76 v -6.8 h 5.36 v 6.8 h 4.4 v 4.12 h -4.4 v 10.24 q 0.04,1.08 0.6,1.56 0.56,0.48 1.4,0.48 0.84,0 1.64,-0.28 0.8,-0.28 1.28,-0.48 z"
         style="font-weight:bold;-inkscape-font-specification:'Raleway Bold';fill:#6435c9"
         id="path1940" />
      <path
         d="m -475.4591,-154.56063 h -5.36 v -11.76 q 0,-2.44 -0.96,-3.64 -0.92,-1.2 -2.56,-1.2 -0.96,0 -2.04,0.56 -1.08,0.56 -1.96,1.56 -0.84,0.96 -1.24,2.24 v 12.24 h -5.36 v -29.2 h 5.36 v 12.12 q 1.16,-2 3.16,-3.12 2,-1.12 4.36,-1.12 2.04,0 3.32,0.72 1.28,0.68 2,1.88 0.72,1.16 1,2.64 0.28,1.44 0.28,3 z"
         style="font-weight:bold;-inkscape-font-specification:'Raleway Bold';fill:#6435c9"
         id="path1942" />
      <path
         d="m -470.7791,-154.56063 v -20.96 h 5.36 v 20.96 z m 0,-23.88 v -5.32 h 5.36 v 5.32 z"
         style="font-weight:bold;-inkscape-font-specification:'Raleway Bold';fill:#6435c9"
         id="path1944" />
      <path
         d="m -452.85913,-154.16063 q -2.68,0 -5.12,-0.88 -2.44,-0.88 -4.2,-2.6 l 1.92,-3.48 q 1.88,1.52 3.68,2.24 1.84,0.72 3.52,0.72 1.56,0 2.48,-0.56 0.96,-0.56 0.96,-1.68 0,-0.76 -0.52,-1.16 -0.52,-0.44 -1.52,-0.76 -0.96,-0.32 -2.36,-0.72 -2.32,-0.76 -3.88,-1.48 -1.56,-0.72 -2.36,-1.8 -0.76,-1.12 -0.76,-2.84 0,-2.08 1.04,-3.56 1.08,-1.52 2.96,-2.36 1.92,-0.84 4.48,-0.84 2.24,0 4.24,0.72 2,0.68 3.64,2.24 l -2.16,3.4 q -1.6,-1.24 -3.04,-1.8 -1.44,-0.6 -2.92,-0.6 -0.84,0 -1.6,0.2 -0.72,0.2 -1.2,0.68 -0.44,0.44 -0.44,1.28 0,0.76 0.4,1.2 0.44,0.4 1.28,0.72 0.88,0.32 2.12,0.72 2.52,0.72 4.24,1.48 1.76,0.76 2.64,1.88 0.88,1.08 0.88,3 0,3.12 -2.28,4.88 -2.28,1.76 -6.12,1.76 z"
         style="font-weight:bold;-inkscape-font-specification:'Raleway Bold';fill:#6435c9"
         id="path1946" />
    </g>
  </g>
</svg>
