<?xml version="1.0" encoding="UTF-8" standalone="no"?>
<!-- Created with Inkscape (http://www.inkscape.org/) -->

<svg
   width="512"
   height="100"
   viewBox="0 0 512 100"
   version="1.1"
   id="logo"
   inkscape:version="1.2 (dc2aedaf03, 2022-05-15)"
   sodipodi:docname="logo.svg"
   xmlns:inkscape="http://www.inkscape.org/namespaces/inkscape"
   xmlns:sodipodi="http://sodipodi.sourceforge.net/DTD/sodipodi-0.dtd"
   xmlns="http://www.w3.org/2000/svg"
   xmlns:svg="http://www.w3.org/2000/svg">
  <sodipodi:namedview
     id="namedview7"
     pagecolor="#ffffff"
     bordercolor="#666666"
     borderopacity="1.0"
     inkscape:pageshadow="2"
     inkscape:pageopacity="0.0"
     inkscape:pagecheckerboard="0"
     inkscape:document-units="mm"
     showgrid="false"
     inkscape:zoom="4.3994185"
     inkscape:cx="232.75803"
     inkscape:cy="73.646097"
     inkscape:window-width="3742"
     inkscape:window-height="2126"
     inkscape:window-x="3829"
     inkscape:window-y="-11"
     inkscape:window-maximized="1"
     inkscape:current-layer="layer1"
     fit-margin-top="0"
     fit-margin-left="0"
     fit-margin-right="0"
     fit-margin-bottom="0"
     borderlayer="true"
     inkscape:showpageshadow="false"
     units="px"
     inkscape:deskcolor="#d1d1d1" />
  <defs
     id="defs2">
    <rect
       x="-596.61987"
       y="-191.58698"
       width="1722.9969"
       height="1116.0906"
       id="rect1574" />
  </defs>
  <g
     inkscape:label="Layer 1"
     inkscape:groupmode="layer"
     id="layer1"
     transform="translate(157.69673,48.619995)">
    <g
       id="g186">
      <path
         d="m -54.932391,-19.55418 h 8.71174 l -29.125816,67.743527 h -7.671532 l -14.17283,-33.676724 -14.042801,33.676724 h -7.67154 l -29.12581,-67.743527 h 8.58171 l 24.70494,58.64171 12.48249,-30.5561018 -11.44229,-27.9555822 h 7.93159 l 8.581711,21.9743878 8.711739,-21.9743878 h 7.801558 L -91.989791,8.5314282 -79.507298,39.08753 Z"
         id="path3159"
         style="font-size:40px;line-height:1.25;font-family:Raleway;-inkscape-font-specification:Raleway;white-space:pre;stroke-width:0.962244" />
      <path
         d="M -34.518347,48.189347 V -19.55418 h 8.841766 v 67.743527 z m 0,-81.916357 v -13.002597 h 8.841766 v 13.002597 z"
         id="path3161"
         style="font-size:40px;line-height:1.25;font-family:Raleway;-inkscape-font-specification:Raleway;white-space:pre;stroke-width:0.962244" />
      <path
         d="m 16.061786,49.489607 q -8.3216622,0 -15.47309017,-2.730545 Q -6.5627322,44.028516 -11.763771,38.4374 l 3.6407272,-6.241246 q 5.7211425,5.331064 11.4422849,7.801557 5.8511684,2.340468 12.3524669,2.340468 7.931583,0 12.87257,-3.120623 4.940987,-3.250649 4.940987,-9.231844 0,-4.030805 -2.470494,-6.11122 -2.340467,-2.210441 -6.891376,-3.510701 -4.420882,-1.430286 -10.662129,-2.990597 -7.0214018,-1.95039 -11.8323625,-4.030805 -4.6809347,-2.210442 -7.151428,-5.4610906 -2.3404673,-3.3806751 -2.3404673,-8.71173963 0,-6.63132417 3.2506491,-10.92218077 3.380675,-4.420883 9.1018174,-6.631324 5.8511683,-2.340468 13.0025963,-2.340468 7.801558,0 13.782752,2.470494 5.981195,2.470493 9.751948,6.891376 l -4.290857,5.981194 q -3.640727,-4.1608308 -8.71174,-6.11122 -4.940986,-2.080416 -11.052207,-2.080416 -4.160831,0 -7.9315835,1.170234 -3.770753,1.040208 -6.2412463,3.640727 -2.34046734,2.4704933 -2.34046734,6.8913761 0,3.6407269 1.82036354,5.7211424 1.8203635,1.9503894 5.4610904,3.380675 3.6407272,1.3002597 8.9717912,2.8605715 7.671532,2.080415 13.392675,4.290857 5.721142,2.080415 8.841765,5.46109 3.120623,3.380675 3.120623,9.491895 0,9.491896 -7.151428,14.82296 -7.151428,5.331065 -18.853764,5.331065 z"
         id="path3163"
         style="font-size:40px;line-height:1.25;font-family:Raleway;-inkscape-font-specification:Raleway;white-space:pre;stroke-width:0.962244" />
      <path
         d="m 113.58126,48.189347 h -8.84177 V 10.351792 q 0,-11.4422852 -4.0308,-17.1634276 -4.030807,-5.8511684 -11.572313,-5.8511684 -4.940986,0 -9.881973,2.600519 -4.810961,2.4704936 -8.581714,6.8913764 -3.640727,4.2908568 -5.201038,9.8819733 V 48.189347 h -8.841766 v -94.918954 h 8.841766 v 42.5184907 q 4.030805,-7.5415057 11.182233,-11.9623887 7.281454,-4.550909 15.473089,-4.550909 5.851169,0 9.881976,2.080416 4.16083,2.080415 6.63132,6.11122 2.60052,3.9007789 3.77075,9.2318435 1.17024,5.2010385 1.17024,11.8323627 z"
         id="path3165"
         style="font-size:40px;line-height:1.25;font-family:Raleway;-inkscape-font-specification:Raleway;white-space:pre;stroke-width:0.962244" />
    </g>
    <g
       id="g192">
      <path
         d="m 171.44281,44.678646 q -2.21044,0.910182 -5.33106,2.080416 -3.12063,1.170233 -6.76135,1.820363 -3.5107,0.780156 -7.15143,0.780156 -4.81096,0 -8.84177,-1.690338 -4.0308,-1.690337 -6.50129,-5.331064 -2.34047,-3.770753 -2.34047,-9.751947 V -6.5515836 h -8.97179 V -19.944258 h 8.97179 v -22.104414 h 17.42348 v 22.104414 h 14.30285 V -6.5515836 H 151.93892 V 26.735063 q 0.13002,3.510701 1.95039,5.071013 1.82036,1.560311 4.55091,1.560311 2.73054,0 5.33106,-0.910181 2.60052,-0.910182 4.16083,-1.560312 z"
         style="font-weight:bold;font-size:40px;line-height:1.25;font-family:Raleway;-inkscape-font-specification:'Raleway Bold';white-space:pre;fill:#6435c9;stroke-width:0.962244"
         id="path3167" />
      <path
         d="M 243.8674,48.189347 H 226.44393 V 9.9617138 q 0,-7.9315838 -3.12063,-11.8323627 -2.99059,-3.900779 -8.32166,-3.900779 -3.12062,0 -6.63132,1.8203635 -3.5107,1.8203635 -6.37128,5.0710126 -2.73054,3.1206232 -4.0308,7.281454 V 48.189347 h -17.42348 v -94.918954 h 17.42348 v 39.3978676 q 3.77075,-6.5012986 10.27205,-10.1420256 6.5013,-3.640727 14.17283,-3.640727 6.63132,0 10.79216,2.340468 4.16083,2.210441 6.50129,6.11122 2.34047,3.770753 3.25065,8.5817137 0.91018,4.68093467 0.91018,9.7519473 z"
         style="font-weight:bold;font-size:40px;line-height:1.25;font-family:Raleway;-inkscape-font-specification:'Raleway Bold';white-space:pre;fill:#6435c9;stroke-width:0.962244"
         id="path3169" />
      <path
         d="m 259.08044,48.189347 v -68.133605 h 17.42348 v 68.133605 z m 0,-77.6255 v -17.293454 h 17.42348 v 17.293454 z"
         style="font-weight:bold;font-size:40px;line-height:1.25;font-family:Raleway;-inkscape-font-specification:'Raleway Bold';white-space:pre;fill:#6435c9;stroke-width:0.962244"
         id="path3171" />
      <path
         d="m 317.33198,49.489607 q -8.71174,0 -16.64333,-2.860571 -7.93158,-2.860572 -13.65272,-8.451688 l 6.24124,-11.312259 q 6.11122,4.940987 11.96239,7.281454 5.9812,2.340467 11.44229,2.340467 5.07101,0 8.06161,-1.820363 3.12062,-1.820364 3.12062,-5.461091 0,-2.470493 -1.69034,-3.770753 -1.69034,-1.430285 -4.94098,-2.470493 -3.12063,-1.040208 -7.67154,-2.340467 -7.5415,-2.470493 -12.61251,-4.810961 -5.07102,-2.340467 -7.67154,-5.8511682 -2.47049,-3.640727 -2.47049,-9.23184346 0,-6.76135014 3.38068,-11.57231034 3.5107,-4.940987 9.62192,-7.671532 6.24124,-2.730546 14.5629,-2.730546 7.28146,0 13.78276,2.340468 6.50129,2.210441 11.83236,7.281454 l -7.0214,11.0522067 q -5.20104,-4.0308049 -9.88198,-5.8511684 -4.68093,-1.9503894 -9.49189,-1.9503894 -2.73055,0 -5.20104,0.6501298 -2.34047,0.6501298 -3.90078,2.2104414 -1.43028,1.4302856 -1.43028,4.1608308 0,2.4704933 1.30026,3.9007789 1.43028,1.3002597 4.16083,2.3404674 2.86057,1.0402077 6.89137,2.3404673 8.19164,2.3404674 13.78275,4.8109605 5.72115,2.470494 8.58172,6.111221 2.86057,3.510701 2.86057,9.751947 0,10.142025 -7.41148,15.863167 -7.41148,5.721143 -19.89397,5.721143 z"
         style="font-weight:bold;font-size:40px;line-height:1.25;font-family:Raleway;-inkscape-font-specification:'Raleway Bold';white-space:pre;fill:#6435c9;stroke-width:0.962244"
         id="path3173" />
    </g>
  </g>
</svg>
